<mxfile host="app.diagrams.net" modified="2021-10-21T14:45:47.284Z" agent="5.0 (Windows NT 10.0; Win64; x64) AppleWebKit/537.36 (KHTML, like Gecko) Chrome/94.0.4606.81 Safari/537.36" etag="uzC3sSup4aiYyEKMXoyl" version="15.5.8" type="github">
  <diagram id="IAIs5vI9f244b8POzp2R" name="Page-1">
    <mxGraphModel dx="2489" dy="762" grid="1" gridSize="10" guides="1" tooltips="1" connect="1" arrows="1" fold="1" page="1" pageScale="1" pageWidth="827" pageHeight="1169" math="0" shadow="0">
      <root>
        <mxCell id="0" />
        <mxCell id="1" parent="0" />
        <mxCell id="Tmua569i0TjKOMChBHJN-1" value="TADSBusTransportBase" style="rounded=0;whiteSpace=wrap;html=1;" vertex="1" parent="1">
          <mxGeometry x="270" y="70" width="136" height="60" as="geometry" />
        </mxCell>
        <mxCell id="Tmua569i0TjKOMChBHJN-2" value="TADSHandshakeBusTransportBase" style="rounded=0;whiteSpace=wrap;html=1;" vertex="1" parent="1">
          <mxGeometry x="110" y="230" width="230" height="60" as="geometry" />
        </mxCell>
        <mxCell id="Tmua569i0TjKOMChBHJN-3" value="" style="endArrow=classic;html=1;rounded=0;exitX=0.5;exitY=1;exitDx=0;exitDy=0;entryX=0.5;entryY=0;entryDx=0;entryDy=0;" edge="1" parent="1" source="Tmua569i0TjKOMChBHJN-1" target="Tmua569i0TjKOMChBHJN-2">
          <mxGeometry width="50" height="50" relative="1" as="geometry">
            <mxPoint x="390" y="420" as="sourcePoint" />
            <mxPoint x="440" y="370" as="targetPoint" />
            <Array as="points">
              <mxPoint x="338" y="160" />
              <mxPoint x="225" y="160" />
            </Array>
          </mxGeometry>
        </mxCell>
        <mxCell id="Tmua569i0TjKOMChBHJN-6" value="TADSSessionBusTransportBase" style="rounded=0;whiteSpace=wrap;html=1;" vertex="1" parent="1">
          <mxGeometry x="510" y="230" width="180" height="60" as="geometry" />
        </mxCell>
        <mxCell id="Tmua569i0TjKOMChBHJN-8" value="" style="endArrow=classic;html=1;rounded=0;entryX=0.5;entryY=0;entryDx=0;entryDy=0;" edge="1" parent="1" target="Tmua569i0TjKOMChBHJN-6">
          <mxGeometry width="50" height="50" relative="1" as="geometry">
            <mxPoint x="340" y="130" as="sourcePoint" />
            <mxPoint x="235" y="240" as="targetPoint" />
            <Array as="points">
              <mxPoint x="340" y="160" />
              <mxPoint x="600" y="160" />
            </Array>
          </mxGeometry>
        </mxCell>
        <mxCell id="Tmua569i0TjKOMChBHJN-9" value="TADSBusTransportConnection" style="rounded=0;whiteSpace=wrap;html=1;" vertex="1" parent="1">
          <mxGeometry x="230" y="340" width="230" height="60" as="geometry" />
        </mxCell>
        <mxCell id="Tmua569i0TjKOMChBHJN-10" value="TADSBusTransportSession" style="rounded=0;whiteSpace=wrap;html=1;" vertex="1" parent="1">
          <mxGeometry x="510" y="340" width="180" height="60" as="geometry" />
        </mxCell>
        <mxCell id="Tmua569i0TjKOMChBHJN-11" value="TADSBusTransportServerSocket" style="rounded=0;whiteSpace=wrap;html=1;" vertex="1" parent="1">
          <mxGeometry x="-30" y="340" width="230" height="60" as="geometry" />
        </mxCell>
        <mxCell id="Tmua569i0TjKOMChBHJN-12" value="" style="endArrow=classic;html=1;rounded=0;entryX=0.426;entryY=0;entryDx=0;entryDy=0;entryPerimeter=0;" edge="1" parent="1" source="Tmua569i0TjKOMChBHJN-2" target="Tmua569i0TjKOMChBHJN-11">
          <mxGeometry width="50" height="50" relative="1" as="geometry">
            <mxPoint x="390" y="410" as="sourcePoint" />
            <mxPoint x="440" y="360" as="targetPoint" />
          </mxGeometry>
        </mxCell>
        <mxCell id="Tmua569i0TjKOMChBHJN-13" value="" style="endArrow=classic;html=1;rounded=0;entryX=0.5;entryY=0;entryDx=0;entryDy=0;" edge="1" parent="1" source="Tmua569i0TjKOMChBHJN-2" target="Tmua569i0TjKOMChBHJN-9">
          <mxGeometry width="50" height="50" relative="1" as="geometry">
            <mxPoint x="218.96999999999983" y="293" as="sourcePoint" />
            <mxPoint x="70.00000000000001" y="340" as="targetPoint" />
          </mxGeometry>
        </mxCell>
        <mxCell id="Tmua569i0TjKOMChBHJN-14" value="" style="endArrow=classic;html=1;rounded=0;entryX=0.5;entryY=0;entryDx=0;entryDy=0;" edge="1" parent="1" source="Tmua569i0TjKOMChBHJN-6" target="Tmua569i0TjKOMChBHJN-10">
          <mxGeometry width="50" height="50" relative="1" as="geometry">
            <mxPoint x="280" y="300" as="sourcePoint" />
            <mxPoint x="355" y="350" as="targetPoint" />
          </mxGeometry>
        </mxCell>
      </root>
    </mxGraphModel>
  </diagram>
</mxfile>
